<?xml version="1.0" standalone="no"?>
<!DOCTYPE svg PUBLIC "-//W3C//DTD SVG 20010904//EN"
 "http://www.w3.org/TR/2001/REC-SVG-20010904/DTD/svg10.dtd">
<svg version="1.0" xmlns="http://www.w3.org/2000/svg"
 width="640.000000pt" height="640.000000pt" viewBox="0 0 640.000000 640.000000"
 preserveAspectRatio="xMidYMid meet">

<g transform="translate(0.000000,640.000000) scale(0.100000,-0.100000)"
fill="#000000" stroke="none">
<path d="M1108 4112 c-10 -2 -18 -10 -18 -18 0 -18 -11 -18 -46 1 -87 45 -225
-7 -273 -104 -35 -69 -106 -431 -98 -499 8 -73 84 -149 171 -173 52 -15 135 1
186 35 65 43 122 151 132 251 l3 30 -79 3 c-90 3 -91 2 -101 -71 -9 -61 -36
-91 -73 -82 -31 8 -42 21 -42 52 0 31 58 334 70 360 13 32 55 40 82 17 17 -16
19 -27 15 -69 -3 -27 -7 -57 -9 -65 -2 -12 11 -16 71 -18 41 -2 78 1 82 5 11
11 79 335 73 345 -5 8 -112 8 -146 0z"/>
<path d="M1523 4106 c-57 -19 -109 -52 -133 -86 -24 -34 -106 -347 -116 -441
-16 -163 70 -253 241 -253 77 0 134 31 176 93 36 54 50 102 90 291 39 189 40
247 2 308 -49 79 -165 119 -260 88z m82 -166 c45 -17 46 -41 5 -225 -20 -94
-40 -179 -44 -191 -15 -46 -91 -50 -115 -6 -10 19 5 105 53 317 19 79 23 87
51 103 25 14 19 14 50 2z"/>
<path d="M3397 4113 c-3 -5 -10 -37 -17 -71 -11 -62 -11 -64 14 -87 14 -13 26
-25 26 -27 0 -2 -18 -95 -38 -208 l-38 -205 -34 -23 c-35 -23 -56 -75 -59
-140 l-1 -23 157 3 158 3 11 50 c18 75 17 92 -6 98 -11 3 -23 12 -26 21 -6 17
48 343 67 404 6 19 22 38 39 47 24 12 31 25 40 72 6 32 12 65 13 73 2 13 -22
15 -150 18 -83 1 -154 -1 -156 -5z"/>
<path d="M3928 4113 c-98 -4 -86 6 -108 -93 -9 -42 -8 -46 15 -63 14 -10 25
-28 25 -40 0 -45 -72 -393 -86 -414 -8 -13 -23 -23 -34 -23 -15 0 -21 -12 -30
-57 -6 -32 -14 -66 -16 -75 -5 -17 12 -18 260 -18 l266 0 5 23 c3 12 16 75 29
140 26 132 27 130 -44 125 -43 -3 -43 -4 -62 -58 -31 -94 -98 -128 -148 -75
-22 23 -22 27 -11 87 17 91 20 98 41 98 19 0 32 -22 26 -42 -3 -7 -7 -25 -10
-40 -6 -26 -4 -28 29 -28 28 0 36 4 39 23 3 12 15 74 26 137 12 63 23 123 26
133 4 14 -1 17 -30 17 -31 0 -36 -4 -41 -27 -13 -63 -21 -78 -43 -81 -27 -4
-28 15 -8 102 16 68 43 99 85 99 44 0 70 -28 77 -84 l7 -49 52 0 53 0 26 136
c15 76 25 138 24 139 -6 5 -359 11 -440 8z"/>
<path d="M5198 4109 c-5 -4 -16 -36 -22 -73 -13 -64 -12 -66 11 -81 30 -20 30
-33 -12 -254 -34 -185 -48 -221 -85 -221 -13 0 -20 -15 -29 -61 -7 -34 -15
-67 -18 -75 -4 -12 35 -14 263 -12 l269 3 27 130 c15 72 27 136 28 143 0 8
-17 12 -54 12 l-53 0 -23 -61 c-12 -33 -30 -69 -41 -80 -23 -23 -67 -25 -98
-3 -22 16 -23 21 -17 81 8 78 21 113 41 113 23 0 29 -25 17 -71 l-10 -40 36 3
36 3 27 135 c36 177 36 170 -6 170 -27 0 -35 -4 -35 -17 0 -10 -5 -35 -11 -55
-8 -31 -14 -38 -36 -38 -24 0 -25 2 -19 43 19 121 44 161 100 161 47 0 66 -20
74 -80 l7 -49 53 -3 c28 -2 52 -1 52 1 0 2 11 59 25 127 14 68 25 130 25 139
0 15 -25 16 -256 16 -141 0 -260 -3 -266 -6z"/>
<path d="M1942 4043 c-10 -57 -9 -69 3 -76 36 -20 36 -42 0 -243 -19 -108 -40
-203 -46 -211 -6 -7 -23 -19 -37 -26 -21 -10 -29 -24 -39 -72 -7 -33 -12 -66
-13 -72 0 -10 38 -13 159 -13 l160 0 11 58 c6 31 13 64 16 72 2 10 -7 20 -27
27 -31 12 -32 13 -25 60 14 108 28 153 51 159 31 8 75 -12 75 -34 0 -10 -9
-67 -20 -127 -25 -137 -25 -148 3 -181 22 -25 27 -26 112 -25 49 1 90 3 92 4
1 2 9 33 16 68 13 64 13 66 -7 75 -14 6 -20 17 -19 34 1 14 5 56 9 93 6 62 5
70 -16 92 l-23 24 40 45 c64 73 81 171 43 253 -35 78 -54 83 -296 83 l-211 0
-11 -67z m329 -105 c13 -25 2 -97 -19 -120 -10 -12 -30 -18 -59 -18 -38 0 -44
3 -39 18 3 9 8 35 11 57 11 65 16 76 38 84 29 11 55 3 68 -21z"/>
<path d="M2672 4044 c-10 -63 -10 -68 10 -84 28 -22 27 -38 -11 -254 -32 -184
-42 -209 -85 -220 -18 -4 -25 -15 -30 -48 -4 -24 -9 -58 -12 -75 l-6 -33 160
0 159 0 15 73 14 74 -28 11 c-20 7 -28 17 -28 35 0 45 30 171 43 179 20 13 43
9 67 -10 l21 -17 -20 -119 c-26 -147 -26 -157 0 -190 19 -25 25 -26 113 -26
l93 0 12 66 c11 63 11 66 -10 83 -21 17 -22 21 -11 76 17 82 15 108 -9 139
l-21 27 36 39 c86 95 82 266 -8 321 -28 17 -53 19 -242 19 l-211 0 -11 -66z
m327 -112 c11 -21 -1 -95 -19 -117 -13 -15 -101 -22 -99 -7 0 4 6 36 13 72 9
52 17 67 36 77 27 13 54 4 69 -25z"/>
<path d="M4471 4044 c-12 -65 -12 -66 15 -90 18 -18 24 -31 21 -47 -3 -12 -20
-101 -37 -197 -32 -183 -45 -216 -82 -222 -23 -3 -28 -17 -43 -115 l-6 -43
164 0 164 0 11 64 c16 87 15 96 -8 96 -30 0 -35 24 -21 108 17 100 18 102 56
102 52 0 57 -15 40 -111 -31 -165 -31 -191 0 -227 27 -32 27 -32 119 -32 l93
0 12 69 c14 90 15 88 -10 94 -19 5 -21 11 -15 39 20 96 20 138 -4 170 l-22 30
30 31 c70 72 91 182 51 264 -40 83 -42 83 -294 83 l-223 0 -11 -66z m324 -100
c12 -13 15 -27 10 -58 -11 -65 -29 -86 -75 -86 -22 0 -40 4 -40 8 0 27 24 129
32 140 15 17 54 15 73 -4z"/>
<path d="M3986 3166 c-54 -20 -85 -45 -121 -95 -25 -36 -30 -54 -33 -114 -3
-64 0 -78 25 -127 25 -46 43 -64 128 -121 129 -88 148 -125 92 -186 -26 -28
-66 -29 -100 -3 -28 22 -42 58 -53 133 l-6 48 -66 -3 -67 -3 -31 -152 -31
-153 74 0 c56 0 75 4 79 15 5 12 12 11 46 -6 172 -88 383 46 380 240 -1 26
-12 67 -28 99 -27 55 -68 89 -174 142 -62 31 -89 57 -96 96 -11 58 31 101 87
89 40 -9 59 -49 59 -125 l0 -60 59 0 c33 0 62 4 66 9 6 11 55 247 55 267 0 20
-138 20 -146 0 -4 -12 -10 -11 -36 2 -44 21 -116 25 -162 8z"/>
<path d="M210 3100 c-12 -69 -11 -72 9 -86 28 -20 27 -47 -9 -250 -38 -211
-35 -203 -75 -220 -30 -12 -34 -19 -44 -77 -6 -35 -11 -70 -11 -77 0 -10 41
-12 213 -7 188 4 218 7 253 25 82 42 101 80 138 268 57 297 57 345 -1 414 -54
64 -89 74 -284 78 l-177 4 -12 -72z m325 -133 c12 -19 13 -34 4 -87 -21 -138
-59 -313 -70 -326 -7 -9 -31 -14 -61 -14 -47 0 -50 1 -45 23 3 12 20 101 37
197 16 96 33 187 36 203 5 24 10 27 45 27 29 0 42 -6 54 -23z"/>
<path d="M855 3158 c-5 -18 -25 -117 -25 -128 0 -5 9 -11 19 -15 11 -3 23 -14
26 -24 7 -22 -63 -411 -77 -429 -6 -6 -22 -18 -36 -25 -20 -9 -28 -24 -38 -72
-7 -33 -13 -65 -13 -72 -1 -9 61 -11 260 -8 143 2 262 5 264 7 5 4 55 245 55
263 0 11 -13 15 -54 15 l-53 0 -22 -58 c-11 -33 -30 -67 -41 -77 -27 -25 -76
-23 -102 3 -20 20 -21 24 -9 94 15 80 25 100 48 91 12 -5 14 -16 8 -60 l-7
-54 33 3 33 3 28 135 c35 175 35 170 -6 170 -32 0 -34 -2 -40 -42 -7 -45 -21
-68 -41 -68 -23 0 -24 26 -5 101 20 80 43 109 90 109 45 0 64 -26 72 -100 3
-23 8 -25 61 -28 49 -3 57 -1 58 15 0 10 2 29 5 43 9 54 36 186 40 203 5 16
-12 17 -261 17 -204 0 -267 -3 -270 -12z"/>
<path d="M1485 3148 c-23 -103 -26 -123 -15 -126 19 -7 40 -33 40 -51 0 -9
-16 -103 -35 -207 -30 -165 -37 -192 -59 -210 -14 -12 -29 -23 -35 -25 -10 -4
-42 -134 -35 -142 5 -4 524 -1 528 4 4 4 56 259 56 272 0 4 -24 7 -54 7 l-54
0 -17 -49 c-24 -72 -49 -101 -90 -101 -89 0 -93 18 -50 242 39 205 53 245 89
254 21 5 26 15 35 68 6 35 11 68 11 74 0 9 -43 12 -155 12 -152 0 -155 0 -160
-22z"/>
<path d="M2090 3113 c-6 -32 -13 -65 -16 -73 -2 -9 6 -19 19 -25 13 -6 23 -21
25 -37 4 -35 -66 -399 -81 -416 -6 -8 -21 -18 -33 -22 -16 -6 -25 -23 -34 -62
-6 -29 -14 -61 -17 -71 -4 -16 11 -17 263 -15 l268 3 22 105 c11 58 24 120 27
138 l7 33 -57 -3 -56 -3 -19 -54 c-21 -63 -40 -87 -73 -93 -32 -7 -82 16 -89
40 -7 21 59 394 75 424 5 10 22 24 38 33 25 12 30 22 36 71 4 32 9 63 12 71 4
10 -24 13 -150 13 l-156 0 -11 -57z"/>
<path d="M2883 3158 c-5 -7 -45 -107 -87 -223 -120 -325 -125 -339 -142 -364
-9 -13 -30 -29 -47 -36 -26 -11 -33 -21 -44 -66 -22 -96 -33 -89 136 -89 l148
0 7 43 c4 23 9 57 12 75 6 31 5 32 -30 32 -39 0 -43 9 -26 54 9 25 13 26 85
26 68 0 75 -2 77 -20 4 -54 3 -55 -32 -60 -33 -5 -35 -7 -47 -65 -7 -33 -12
-66 -13 -72 0 -10 41 -13 174 -13 l173 0 7 43 c4 23 9 57 12 75 6 29 4 32 -18
32 -54 0 -51 -8 -161 455 l-42 180 -66 3 c-45 2 -69 -1 -76 -10z m42 -365 c20
-83 20 -83 -25 -83 -22 0 -40 3 -40 7 0 14 44 142 48 139 2 -2 10 -30 17 -63z"/>
<path d="M4452 3100 c-12 -68 -11 -70 13 -94 18 -18 23 -32 19 -53 -27 -166
-67 -371 -75 -385 -5 -10 -21 -21 -34 -24 -13 -3 -26 -13 -29 -22 -14 -51 -28
-124 -25 -127 4 -4 362 -8 471 -6 l57 1 10 38 c9 34 24 114 38 205 l6 37 -54
0 -54 0 -19 -52 c-25 -73 -50 -98 -98 -98 -49 0 -72 31 -64 87 13 84 19 103
32 114 25 21 36 0 29 -57 l-6 -54 35 0 c20 0 36 2 36 5 0 9 51 270 56 288 4
14 -1 17 -30 17 -34 0 -36 -2 -47 -45 -13 -53 -32 -73 -53 -56 -11 10 -11 22
1 78 16 79 34 110 68 119 60 15 87 -9 100 -88 l6 -38 53 0 54 0 22 118 c12 64
24 127 27 140 l5 22 -269 0 -269 0 -12 -70z"/>
<path d="M5090 3102 c-13 -68 -12 -69 14 -95 16 -16 25 -34 22 -45 -2 -9 -19
-93 -36 -187 -35 -190 -44 -217 -80 -225 -22 -5 -27 -14 -39 -78 -7 -40 -12
-74 -10 -76 2 -2 76 -6 163 -8 l160 -3 17 78 c16 72 16 77 0 77 -10 0 -25 6
-34 13 -16 11 -16 17 0 102 l18 90 43 3 42 3 0 -40 c0 -22 -7 -72 -15 -112
-24 -115 -23 -154 5 -184 23 -25 28 -26 119 -23 106 3 100 -2 115 99 6 41 5
47 -14 52 -23 6 -24 20 -9 101 10 58 -1 126 -22 126 -18 0 -9 27 17 51 61 56
88 180 55 254 -10 22 -30 51 -45 65 -27 25 -29 25 -251 28 l-223 3 -12 -69z
m325 -153 c0 -32 -6 -63 -14 -73 -14 -16 -91 -23 -91 -8 0 17 22 127 27 135 3
4 21 7 41 5 l37 -3 0 -56z"/>
<path d="M5966 3151 c-4 -5 -53 -134 -111 -287 -58 -153 -112 -288 -120 -301
-9 -13 -29 -26 -45 -29 -26 -6 -30 -12 -40 -63 -6 -31 -14 -64 -16 -73 -5 -17
7 -18 145 -18 l150 0 11 58 c6 31 12 65 14 75 3 14 -3 17 -35 17 -43 0 -44 2
-28 49 11 31 11 31 84 31 73 0 73 0 84 -31 14 -40 8 -49 -34 -49 -36 0 -39 -4
-51 -98 l-7 -52 174 2 174 3 11 65 c6 36 9 68 7 73 -2 4 -15 7 -28 7 -13 0
-31 10 -39 22 -8 12 -43 136 -77 277 -33 141 -65 273 -70 294 l-10 37 -69 0
c-38 0 -71 -4 -74 -9z m21 -439 c-22 -2 -41 -1 -43 1 -4 4 3 25 41 122 6 15
11 4 24 -50 l16 -70 -38 -3z"/>
</g>
</svg>
