<!-- Creator: CorelDRAW X5 --><svg xmlns="http://www.w3.org/2000/svg" xmlns:xlink="http://www.w3.org/1999/xlink" xml:space="preserve" width="860" height="860" style="shape-rendering:geometricPrecision; text-rendering:geometricPrecision; image-rendering:optimizeQuality; fill-rule:evenodd; clip-rule:evenodd" viewBox="0 0 34155 7755"> <defs>  <style type="text/css">   <![CDATA[    .fil1 {fill:black;fill-rule:nonzero}    .fil0 {fill:url(#id0)}   ]]>  </style>  <radialGradient id="id0" gradientUnits="userSpaceOnUse" cx="17382.3" cy="6016.35" r="1266.21">   <stop offset="0" style="stop-color:white"></stop>   <stop offset="0.25098" style="stop-color:#F5B2B6"></stop>   <stop offset="0.541176" style="stop-color:#E51A4B"></stop>   <stop offset="1" style="stop-color:#762225"></stop>   <stop offset="1" style="stop-color:#762225"></stop>  </radialGradient> </defs> <g id="Livello_x0020_1">  <metadata id="CorelCorpID_0Corel-Layer"></metadata>  <g id="_239418952">   <path class="fil0" d="M18410 6860l0 0zm-211 -390l-132 30 -202 47 -67 15 -12 3 3 15 8 39 24 133 24 135 24 -5c112,-20 223,-30 333,-32 70,0 138,2 206,8 15,-141 11,-288 -17,-433l-9 2 -185 42 0 0zm-435 437l0 0zm-526 203l0 0zm241 -114c92,-36 186,-65 285,-89l-29 -120 -26 -109 -18 -76 -3 -15 -12 2 -405 76 -194 36 14 53c14,52 30,102 50,150 27,71 61,139 99,203 77,-42 158,-80 241,-114l-2 3zm-629 394l0 0zm338 -252l0 0zm-567 -74c32,68 71,132 115,192 35,47 73,92 114,133 65,-59 135,-117 208,-167 42,-30 86,-58 130,-83l-26 -45c-39,-71 -73,-146 -100,-223 -15,-45 -30,-92 -41,-139l-5 -17 -23 5 -177 33 -164 30 -103 20 -18 3 21 79c18,62 42,121 70,179l-2 0zm649 95l0 0zm696 576l0 0zm-74 -312l-30 -124 -41 -168 -33 -138c-21,3 -42,8 -64,12l-3 0c-142,30 -277,76 -403,133l-47 21c30,49 65,94 100,139 44,55 91,103 141,150 132,123 286,221 453,286l-74 -312 2 0zm577 -559l0 0zm412 91l0 0zm-111 -35l52 15 26 8 35 11 29 -91c50,-179 62,-371 24,-567l-109 26 -214 50 -159 36c27,142 32,285 18,423l-3 30 136 20c56,9 111,23 165,38l0 2zm-323 67l0 0zm373 102l0 0zm-38 68l38 -68 -11 -5 -83 -29c-65,-21 -132,-38 -199,-53l-80 -15 -30 120c-50,167 -129,321 -232,458l-38 49c-29,35 -58,67 -89,99l38 -11c80,-26 156,-58 227,-97 188,-105 343,-255 452,-433l0 0 8 -14 0 0zm-1905 258l0 0zm341 -232l0 0zm688 559l0 0zm-468 -297c-53,-50 -102,-103 -147,-162 -26,-32 -50,-67 -73,-102l-123 71c-77,49 -150,102 -218,161l9 9c47,44 97,83 149,120 247,168 555,247 870,200 -173,-67 -332,-167 -468,-297l2 0zm953 -468l0 0zm-267 -18l0 0zm-185 443l58 320 2 5c41,-42 80,-86 117,-133l8 -9c99,-132 176,-280 226,-441 18,-55 32,-109 42,-165l-3 0c-86,-12 -174,-18 -262,-18l-18 0c-82,0 -162,6 -244,18l23 126 32 180 21 118 0 0zm-890 -1215l0 0zm211 390l132 -30 202 -47 67 -15 12 -3 -3 -15 -8 -39 -24 -133 -24 -135 -24 5c-112,20 -223,30 -333,32 -70,0 -138,-2 -206,-8 -15,141 -11,288 17,433l9 -2 185 -42 0 0zm435 -437l0 0zm526 -203l0 0zm-241 114c-92,36 -186,65 -285,89l29 120 26 109 18 76 3 15 12 -2 405 -76 194 -36 -14 -53c-14,-52 -30,-102 -50,-150 -27,-71 -61,-139 -99,-203 -77,42 -158,80 -241,114l2 -3zm629 -394l0 0zm-338 252l0 0zm567 74c-32,-68 -71,-132 -115,-192 -35,-47 -73,-92 -114,-133 -65,59 -135,117 -208,167 -42,30 -86,58 -130,83l26 45c39,71 73,146 100,223 15,45 30,92 41,139l5 17 23 -5 177 -33 164 -30 103 -20 18 -3 -21 -79c-18,-62 -42,-121 -70,-179l2 0zm-649 -95l0 0zm-696 -576l0 0zm74 312l30 124 41 168 33 138c21,-3 42,-8 64,-12l3 0c142,-30 277,-76 403,-133l47 -21c-30,-49 -65,-94 -100,-139 -44,-55 -91,-103 -141,-150 -132,-123 -286,-221 -453,-286l74 312 -2 0zm-577 559l0 0zm-412 -91l0 0zm111 35l-52 -15 -26 -8 -35 -11 -29 91c-50,179 -62,371 -24,567l109 -26 214 -50 159 -36c-27,-142 -32,-285 -18,-423l3 -30 -136 -20c-56,-9 -111,-23 -165,-38l0 -2zm323 -67l0 0zm-373 -102l0 0zm38 -68l-38 68 11 5 83 29c65,21 132,38 199,53l80 15 30 -120c50,-167 129,-321 232,-458l38 -49c29,-35 58,-67 89,-99l-38 11c-80,26 -156,58 -227,97 -188,105 -343,255 -452,433l0 0 -8 14 0 0zm1905 -258l0 0zm-341 232l0 0zm-688 -559l0 0zm468 297c53,50 102,103 147,162 26,32 50,67 73,102l123 -71c77,-49 150,-102 218,-161l-9 -9c-47,-44 -97,-83 -149,-120 -247,-168 -555,-247 -870,-200 173,67 332,167 468,297l-2 0zm-953 468l0 0zm267 18l0 0zm185 -443l-58 -320 -2 -5c-41,42 -80,86 -117,133l-8 9c-99,132 -176,280 -226,441 -18,55 -32,109 -42,165l3 0c86,12 174,18 262,18l18 0c82,0 162,-6 244,-18l-23 -126 -32 -180 -21 -118 0 0z"></path>   <path class="fil1" d="M27816 5735c-42,0 -77,-35 -77,-79l0 -4614c0,-42 35,-77 77,-77l746 0c446,0 806,327 806,738l0 2352c0,411 -361,746 -806,746 -71,0 -208,-26 -208,-26l0 881c0,44 -35,79 -77,79l-459 0 -2 0zm944 -1702l0 -2304c0,-85 -89,-155 -200,-155 -111,0 -200,0 -200,0l0 2457c0,85 89,155 200,155 111,0 200,-70 200,-155l0 2z"></path>   <path class="fil1" d="M31280 1705c0,-424 -359,-770 -806,-770 -447,0 -806,344 -806,770l0 2383c0,424 359,768 806,768 447,0 806,-344 806,-768l0 -2383zm-606 2357c0,88 -89,159 -200,159 -111,0 -200,-71 -200,-159l0 -2331c0,-88 89,-159 200,-159 111,0 200,71 200,159l0 2331z"></path>   <path class="fil1" d="M21429 4080c0,12 -3,23 -8,32l-5 9c-108,194 -477,740 -917,740 -29,0 -61,-2 -88,-8 -68,-14 -120,-33 -177,-68 -95,-50 -200,-150 -279,-277 -71,-112 -88,-199 -105,-314 -6,-39 -9,-103 -9,-155l0 -2295c0,-352 290,-793 850,-776 246,8 567,174 699,493 65,161 65,312 64,465 -9,781 -997,1549 -1009,1558l0 349c0,82 12,171 36,223 5,11 35,71 89,88 121,38 264,-112 430,-355 14,-20 38,-45 77,-39 15,3 36,14 52,27 50,39 273,241 273,241 21,21 29,39 29,61l-3 2zm-984 -2249c0,318 0,926 0,926 0,0 235,-270 306,-402 73,-133 118,-265 127,-296 47,-165 80,-415 -147,-487 -36,-12 -76,-11 -115,-5 -32,6 -173,58 -173,261l2 2z"></path>   <path class="fil1" d="M32882 1006c38,5 68,35 70,73l0 537c0,35 -32,65 -68,71 -429,29 -681,276 -681,594l0 2457c0,42 -35,77 -77,77l-449 0c-44,0 -79,-35 -79,-77l0 -2821 0 -796 0 -18 0 -23c21,-30 47,-47 77,-47 11,0 17,2 26,5 6,3 14,8 21,11l340 192 56 24c226,-167 450,-258 734,-258l29 0 2 -2z"></path>   <path class="fil1" d="M34061 4214l17 -2c47,5 77,36 77,76l0 484c0,35 -24,64 -56,73 -8,2 -14,3 -18,3 -36,5 -73,8 -109,8 -447,0 -809,-344 -809,-770 0,-14 2,-26 3,-39l0 -3539 0 -9 0 -9c3,-24 17,-45 36,-58 14,-8 444,-252 444,-252 6,-5 15,-9 21,-11 9,-3 17,-5 26,-5 39,0 73,30 77,68l0 18 0 743 302 0c42,0 77,35 77,79l0 482c0,42 -35,79 -77,79l-302 0 0 2428c0,88 89,159 200,159 33,0 64,-3 91,-8l0 2z"></path>   <path class="fil1" d="M25123 1705c0,-424 -359,-770 -806,-770 -446,0 -806,344 -806,770l0 2383c0,424 359,768 806,768 447,0 806,-344 806,-768l0 -2383zm-606 2357c0,88 -89,159 -200,159 -111,0 -200,-71 -200,-159l0 -2331c0,-88 89,-159 200,-159 111,0 200,71 200,159l0 2331z"></path>   <path class="fil1" d="M25631 4406l-17 -18c-12,-18 -17,-41 -12,-65 3,-12 8,-24 15,-33 5,-6 11,-12 17,-17l326 -327c20,-23 49,-32 80,-26 23,5 39,17 55,35 32,33 58,62 91,91 129,102 229,141 305,141 371,0 365,-440 253,-717 -329,-817 -859,-2113 -859,-2113 -215,-552 -164,-1031 223,-1231 344,-179 878,-55 1379,302 29,23 39,44 39,68 0,12 -3,24 -9,35l-243 382c-14,24 -39,41 -68,41 -20,0 -38,-8 -52,-20 -262,-206 -508,-308 -623,-236 -80,49 -86,176 -42,341 0,0 603,1510 940,2436 121,333 156,1376 -938,1376 -227,0 -394,-76 -597,-218 -112,-79 -232,-196 -261,-227l-2 2z"></path>   <path class="fil1" d="M1475 4224c42,0 77,35 77,77l0 435c0,42 -35,77 -77,77l-1397 0c-41,0 -74,-32 -77,-71l0 -3861c3,-26 18,-49 39,-61l477 -271c8,-5 15,-9 23,-12 9,-5 17,-5 29,-5 42,0 79,32 83,74l0 20 0 3597 825 0 -2 0z"></path>   <path class="fil1" d="M1705 1782c0,-12 3,-23 8,-32l5 -9c108,-194 477,-800 917,-800 29,0 61,2 88,8 68,14 120,33 177,68 95,50 200,150 279,277 71,112 88,199 105,314 6,39 9,103 9,155l0 2978c0,42 -35,77 -77,77l-829 0c-320,-6 -585,-167 -671,-382 -45,-114 -55,-280 -53,-435 9,-781 1017,-1608 1029,-1617l0 -356c0,-82 -12,-171 -36,-223 -5,-11 -33,-71 -89,-88 -121,-38 -264,112 -430,355 -14,20 -38,47 -77,41 -15,-3 -36,-14 -52,-27 -50,-39 -273,-241 -273,-241 -21,-21 -29,-39 -29,-61l2 -2zm984 2398l0 -981 -92 79c-58,49 -150,133 -223,267 -58,106 -83,214 -88,244 -15,102 -32,327 135,379 3,2 36,8 47,9 29,3 68,5 112,5l109 0 0 -2z"></path>   <path class="fil1" d="M15580 1782c0,-12 3,-23 8,-32l5 -9c108,-194 477,-800 917,-800 30,0 61,2 88,8 68,14 120,33 177,68 95,50 200,150 280,277 71,112 88,199 105,314 6,39 9,103 9,155l0 2978c0,42 -35,77 -77,77l-829 0c-320,-6 -585,-167 -671,-382 -45,-114 -55,-280 -53,-435 9,-781 1017,-1608 1029,-1617l0 -356c0,-82 -12,-171 -36,-223 -5,-11 -33,-71 -89,-88 -121,-38 -264,112 -430,355 -14,20 -38,47 -77,41 -15,-3 -36,-14 -52,-27 -50,-39 -273,-241 -273,-241 -21,-21 -29,-39 -29,-61l0 -2zm984 2398l0 -981 -92 79c-58,49 -150,133 -223,267 -59,106 -83,214 -88,244 -15,102 -32,327 135,379 3,2 36,8 47,9 30,3 68,5 112,5l109 0 0 -2z"></path>   <path class="fil1" d="M9411 1441c0,8 -2,14 -3,20l-890 2784 825 0c42,0 77,35 77,77l0 412c0,42 -35,77 -77,77l-1426 0c-42,0 -77,-35 -77,-77l0 -374c0,-8 2,-14 3,-20l890 -2771 -815 0c-42,0 -77,-35 -77,-77l0 -412c0,-42 35,-77 77,-77l1419 0c42,0 77,35 77,77l0 362 -2 -2z"></path>   <path class="fil1" d="M11189 1441c0,8 -2,14 -3,20l-890 2784 825 0c42,0 77,35 77,77l0 412c0,42 -35,77 -77,77l-1426 0c-42,0 -77,-35 -77,-77l0 -374c0,-8 2,-14 3,-20l890 -2771 -815 0c-42,0 -77,-35 -77,-77l0 -412c0,-42 35,-77 77,-77l1417 0c42,0 77,35 77,77l0 362 0 -2z"></path>   <path class="fil1" d="M6045 1782c0,-12 3,-23 8,-32l5 -9c108,-194 477,-800 917,-800 29,0 61,2 88,8 68,14 120,33 177,68 95,50 200,150 279,277 71,112 88,199 105,314 6,39 9,103 9,155l0 2978c0,42 -35,77 -77,77l-829 0c-320,-6 -585,-167 -671,-382 -45,-114 -55,-280 -53,-435 9,-781 1017,-1608 1029,-1617l0 -356c0,-82 -12,-171 -36,-223 -5,-11 -33,-71 -89,-88 -121,-38 -264,112 -430,355 -14,20 -38,47 -77,41 -15,-3 -36,-14 -52,-27 -50,-39 -273,-241 -273,-241 -21,-21 -29,-39 -29,-61l2 -2zm984 2398l0 -981 -92 79c-58,49 -150,133 -223,267 -58,106 -83,214 -88,244 -15,102 -32,327 135,379 3,2 36,8 47,9 29,3 68,5 112,5l109 0 0 -2z"></path>   <path class="fil1" d="M12947 4080c0,12 -3,23 -8,32l-5 9c-108,194 -477,740 -917,740 -29,0 -61,-2 -88,-8 -68,-14 -120,-33 -177,-68 -95,-50 -200,-150 -279,-277 -71,-112 -88,-199 -105,-314 -6,-39 -9,-103 -9,-155l0 -2295c0,-352 290,-793 850,-776 246,8 568,174 699,493 65,161 65,312 64,465 -9,781 -997,1549 -1009,1558l0 349c0,82 12,171 36,223 5,11 33,71 89,88 121,38 264,-112 430,-355 14,-20 38,-45 77,-39 15,3 36,14 52,27 50,39 273,241 273,241 21,21 29,39 29,61l-3 2zm-984 -2249c0,318 0,926 0,926 0,0 235,-270 306,-402 73,-133 118,-265 126,-296 47,-165 80,-415 -147,-487 -36,-12 -76,-11 -115,-5 -32,6 -173,58 -173,261l3 2z"></path>   <path class="fil1" d="M15277 4214l17 -2c47,5 77,38 77,77l0 480c0,35 -24,65 -56,74 -8,2 -14,3 -18,3 -36,5 -73,8 -109,8 -447,0 -809,-344 -809,-770 0,-14 2,-26 2,-39l0 -3539 0 -9 0 -9c3,-24 17,-45 36,-58 14,-8 444,-252 444,-252 6,-5 15,-9 21,-11 9,-3 17,-5 26,-5 39,0 73,30 77,68l0 18 0 743 302 0c42,0 77,35 77,79l0 482c0,42 -35,79 -77,79l-302 0 0 2428c0,88 89,159 200,159 33,0 64,-3 89,-8l3 2z"></path>   <path class="fil1" d="M14069 4214l17 -2c47,5 77,38 77,77l0 480c0,35 -24,65 -56,74 -8,2 -14,3 -20,3 -36,5 -73,8 -109,8 -447,0 -809,-344 -809,-770 0,-14 2,-26 3,-39l0 -3539 0 -9 0 -9c3,-24 17,-45 36,-58 14,-8 444,-252 444,-252 8,-5 15,-9 21,-11 9,-3 17,-5 26,-5 39,0 73,30 77,68l0 18 0 743 302 0c42,0 77,35 77,79l0 482c0,42 -35,79 -77,79l-302 0 0 2428c0,88 89,159 200,159 33,0 64,-3 91,-8l2 2z"></path>   <path class="fil1" d="M4794 667c-120,68 -164,147 -167,314l0 2940c0,112 124,214 277,214 153,0 279,-102 279,-214l0 -1372 -191 0c-42,0 -77,-35 -77,-77l0 -302c0,-42 35,-77 77,-77l761 0c42,0 77,35 77,79l0 1693c0,517 -414,935 -928,935 -514,0 -928,-418 -928,-935l0 -2725c0,-335 53,-629 196,-837 50,-85 147,-168 238,-220 88,-49 189,-76 300,-83l124 0c291,18 631,156 955,385 29,23 39,44 39,67 0,12 -3,24 -9,35l-243 382c-14,24 -39,41 -68,41 -20,0 -38,-8 -52,-20 -262,-206 -514,-309 -664,-224l2 2z"></path>   <path class="fil1" d="M18951 4198c0,0 -89,0 -199,0 -111,0 -200,-68 -200,-155l0 -2284c0,-85 89,-155 200,-155 111,0 200,68 200,155l0 2439 -2 0zm612 -3630l0 -462 0 -18c-5,-39 -38,-68 -77,-68 -11,0 -17,2 -26,5 -6,3 -15,8 -21,11l-443 252c-20,12 -35,33 -36,58l0 18 0 262 0 0 0 393c-67,-17 -136,-26 -208,-26 -446,0 -806,333 -806,744l0 2334c0,412 359,740 806,740l734 0c42,0 77,-35 77,-77l0 -4156 0 -6 0 -2z"></path>   <path class="fil1" d="M22284 561l0 -453 0 -18c-5,-39 -38,-68 -77,-68 -11,0 -17,2 -26,5 -6,3 -14,8 -21,11l-443 252c-20,12 -35,33 -36,58l0 18 0 262 2 0 0 4112c0,42 35,77 77,77l449 0c42,0 77,-35 77,-77l0 -4171 0 -5 -2 -2z"></path>   <path class="fil1" d="M23215 471l0 -365 0 -18c-5,-39 -38,-68 -77,-68 -11,0 -17,2 -26,5 -6,3 -14,8 -21,11l-443 252c-20,12 -35,33 -36,58l0 18 0 262 2 0 0 4112c0,42 35,77 77,77l447 0c42,0 77,-35 77,-77l0 -4261 0 -5 0 0z"></path>   <polygon class="fil1" points="11137,6060 11137,6819 11022,6819 11022,6060 10781,6060 10781,5952 11395,5952 11395,6060 "></polygon>   <path class="fil1" d="M11574 6834c-139,0 -243,-58 -243,-218l0 -430 109 0 0 408c0,92 50,141 136,141 49,0 97,-12 144,-33 0,0 -3,-20 -3,-32l0 -485 108 0 0 499c0,27 9,85 9,85 -82,33 -173,65 -261,65l0 2z"></path>   <path class="fil1" d="M12158 6837c-103,0 -167,-50 -167,-164l0 -390 -68 -3 0 -89 68 -3 0 -174 109 0 0 174 174 0 0 99 -174 0 0 385c0,52 32,67 70,67 38,0 80,-14 108,-24l29 94c-45,17 -97,32 -147,32l-2 -3z"></path>   <path class="fil1" d="M12559 6837c-103,0 -167,-50 -167,-164l0 -390 -68 -3 0 -89 68 -3 0 -174 109 0 0 174 174 0 0 99 -174 0 0 385c0,52 32,67 70,67 38,0 80,-14 108,-24l29 94c-45,17 -97,32 -147,32l-2 -3z"></path>   <path class="fil1" d="M13020 6270c-115,0 -173,105 -173,232 0,127 56,232 173,232 115,0 171,-105 171,-232 0,-127 -56,-232 -171,-232zm-2 564c-174,0 -291,-138 -291,-330 0,-192 117,-330 291,-330 174,0 293,138 293,330 0,192 -118,330 -293,330zm506 -649l109 0 0 634 -109 0 0 -634zm52 -147c-38,0 -68,-27 -68,-70 0,-41 30,-71 68,-71 38,0 71,30 71,71 0,42 -32,70 -71,70z"></path>   <path class="fil1" d="M13901 6834c-77,0 -118,-39 -118,-121l0 -823 109 0 0 802c0,24 11,45 36,45 15,0 30,-5 44,-11l26 89c-29,11 -64,20 -95,20l-2 -2z"></path>   <path class="fil1" d="M14493 6284c-23,-5 -47,-8 -70,-8 -39,0 -79,8 -117,21 0,0 2,18 2,27l0 496 -108 0 0 -493c0,-29 -9,-89 -9,-89 79,-35 161,-65 249,-65 30,0 59,3 88,12l-32 100 -3 -1z"></path>   <path class="fil1" d="M14833 6270c-115,0 -173,105 -173,232 0,127 56,232 173,232 115,0 171,-105 171,-232 0,-127 -56,-232 -171,-232zm-2 564c-174,0 -291,-138 -291,-330 0,-192 117,-330 291,-330 174,0 293,138 293,330 0,192 -118,330 -293,330z"></path>   <path class="fil1" d="M15362 6833c-59,0 -127,-15 -180,-36l32 -91c42,18 97,33 142,33 56,0 112,-20 112,-88 0,-132 -273,-105 -273,-302 0,-123 109,-174 208,-174 55,0 115,15 155,33l-29 91c-39,-15 -85,-27 -127,-27 -50,0 -95,18 -95,77 0,121 283,86 283,305 0,132 -120,182 -226,182l-2 -3z"></path>   <path class="fil1" d="M16026 6687l0 -199c-27,23 -76,32 -120,42 -70,17 -133,36 -133,108 0,67 50,97 132,97 44,0 86,-8 126,-21 0,0 -3,-17 -3,-26l-2 -2zm-123 146c-147,0 -252,-62 -252,-186 0,-139 109,-177 208,-199 86,-20 167,-29 167,-91 0,-74 -67,-86 -118,-86 -62,0 -133,29 -159,41l-38 -89c59,-29 139,-50 203,-50 144,0 220,70 220,203l0 330c0,27 9,80 9,80 -71,24 -156,47 -239,47z"></path>   <path class="fil1" d="M19666 6693l0 -385c-32,-23 -77,-36 -114,-36 -124,0 -177,111 -177,227 0,126 62,236 192,236 30,0 71,-8 100,-20 0,0 -2,-9 -2,-23l0 0zm-97 141c-185,0 -314,-141 -314,-333 0,-182 92,-329 277,-329 45,0 94,12 135,35l0 -317 108 0 0 828c0,24 6,76 6,76 -62,26 -144,42 -212,42l0 -2z"></path>   <path class="fil1" d="M20150 6269c-94,0 -146,82 -149,180l293 0c-2,-94 -45,-180 -144,-180l0 0zm253 273l-402 0c6,112 73,192 188,192 50,0 99,-11 144,-29l33 86c-58,27 -123,42 -186,42 -185,0 -296,-144 -296,-332 0,-174 85,-330 265,-330 168,0 261,132 261,300 0,21 -3,45 -6,70l-1 0z"></path>   <path class="fil1" d="M20642 6834c-77,0 -118,-39 -118,-121l0 -823 109 0 0 802c0,24 11,45 36,45 15,0 30,-5 44,-11l26 89c-29,11 -64,20 -95,20l-2 -2z"></path>   <path class="fil1" d="M20947 6834c-77,0 -118,-39 -118,-121l0 -823 109 0 0 802c0,24 11,45 36,45 15,0 30,-5 44,-11l26 89c-29,11 -64,20 -95,20l-2 -2z"></path>   <path class="fil1" d="M21473 6687l0 -199c-27,23 -76,32 -120,42 -70,17 -133,36 -133,108 0,67 50,97 132,97 44,0 86,-8 126,-21 0,0 -3,-17 -3,-26l-2 -2zm-123 146c-147,0 -252,-62 -252,-186 0,-139 109,-177 208,-199 86,-20 167,-29 167,-91 0,-74 -67,-86 -118,-86 -62,0 -133,29 -159,41l-38 -89c59,-29 139,-50 203,-50 144,0 220,70 220,203l0 330c0,27 9,80 9,80 -71,24 -156,47 -239,47z"></path>   <path class="fil1" d="M22278 6831c-68,0 -109,-30 -132,-91l-211 -555 120 0c32,89 174,493 174,493l3 0c0,0 8,-24 11,-35l167 -459 120 0 -250 646 -2 2zm344 -646l109 0 0 634 -109 0 0 -634zm52 -147c-38,0 -68,-27 -68,-70 0,-41 30,-71 68,-71 38,0 71,30 71,71 0,42 -32,70 -71,70z"></path>   <path class="fil1" d="M23086 6837c-103,0 -167,-50 -167,-164l0 -390 -68 -3 0 -89 68 -3 0 -174 109 0 0 174 174 0 0 99 -174 0 0 385c0,52 32,67 70,67 38,0 80,-14 108,-24l29 94c-45,17 -97,32 -147,32l-2 -3z"></path>   <path class="fil1" d="M23645 6687l0 -199c-27,23 -76,32 -120,42 -70,17 -133,36 -133,108 0,67 50,97 132,97 44,0 86,-8 126,-21 0,0 -3,-17 -3,-26l-2 -2zm-123 146c-147,0 -252,-62 -252,-186 0,-139 109,-177 208,-199 86,-20 167,-29 167,-91 0,-74 -67,-86 -118,-86 -61,0 -133,29 -159,41l-38 -89c59,-29 139,-50 203,-50 144,0 220,70 220,203l0 330c0,27 9,80 9,80 -71,24 -156,47 -239,47z"></path>  </g> </g></svg>